<svg xmlns:cc="http://creativecommons.org/ns#" xmlns:dc="http://purl.org/dc/elements/1.1/" xmlns:inkscape="http://www.inkscape.org/namespaces/inkscape" xmlns:rdf="http://www.w3.org/1999/02/22-rdf-syntax-ns#" xmlns:sodipodi="http://sodipodi.sourceforge.net/DTD/sodipodi-0.dtd" xmlns:svg="http://www.w3.org/2000/svg" xmlns="http://www.w3.org/2000/svg" xmlns:xlink="http://www.w3.org/1999/xlink" id="svg25550" x="0px" y="0px" viewBox="0 0 114.6 56.3" style="enable-background:new 0 0 114.6 56.3;" xml:space="preserve">
<style type="text/css">
	.st0{fill:#ED1C24;}
	.st1{fill:#FFFFFF;}
</style>

<g id="layer1" transform="translate(-57.644339,-157.80409)" inkscape:groupmode="layer" inkscape:label="Layer 1">
	<path id="path16093" inkscape:connector-curvature="0" class="st0" d="M57.6,214.1h114.6v-56.3H57.6V214.1z"></path>
	<path id="path16095" inkscape:connector-curvature="0" class="st0" d="M57.6,214.1h114.6v-56.3H57.6V214.1z"></path>
	<g id="g26109" transform="translate(4.6e-4,4.0244201)">
		<path id="path16097" inkscape:connector-curvature="0" class="st1" d="M124.9,190.3h0.6v-28.9h-0.6V190.3z"></path>
		<path id="path16109" inkscape:connector-curvature="0" class="st1" d="M64.8,169.4v-7.9h3.8v7.7c0,1.9,0.5,2.8,2.1,2.8    c1.6,0,2.1-0.9,2.1-2.8v-7.7h3.8v7.8c0,3.9-2.3,5.7-5.9,5.7C66.9,175,64.8,173.1,64.8,169.4"></path>
		<path id="path16113" inkscape:connector-curvature="0" class="st1" d="M77.2,161.5H81l1.7,8.3l1.8-8.3h3.4l1.9,8.4l1.8-8.4h3.5    L92,174.7h-4l-2-8.4l-2.1,8.4h-3.7L77.2,161.5z"></path>
		<path id="path16117" inkscape:connector-curvature="0" class="st1" d="M65.1,177H71c3.1,0,4.5,1.4,4.5,3.5v0.1    c0,1.5-0.8,2.5-2.2,2.9c1.6,0.3,2.7,1.3,2.7,3.1v0.1c0,2.4-1.5,3.7-4.8,3.7h-6L65.1,177z M70.2,182.3c1.2,0,1.6-0.4,1.6-1.4v-0.1    c0-0.9-0.5-1.3-1.6-1.3h-1.4v2.7L70.2,182.3z M70.4,187.8c1.2,0,1.8-0.6,1.8-1.5v-0.1c0-1-0.5-1.5-1.9-1.5h-1.5v3.1L70.4,187.8z"></path>
		<path id="path16121" inkscape:connector-curvature="0" class="st1" d="M76.9,180.6h3.3v1.9c0.6-1.4,1.6-2.1,3.1-2.1v3.1    c-2-0.1-3.1,0.6-3.1,2.1v4.6h-3.3V180.6z"></path>
		<path id="path16125" inkscape:connector-curvature="0" class="st1" d="M84.2,178c0-1,0.8-1.7,1.8-1.7s1.8,0.7,1.8,1.7    c0,1-0.8,1.7-1.8,1.7S84.2,179,84.2,178 M84.4,180.6h3.3v9.7h-3.3V180.6z"></path>
		<path id="path16129" inkscape:connector-curvature="0" class="st1" d="M88.8,187.2h3.1c0.1,0.7,0.4,1.1,1.4,1.1    c0.8,0,1.2-0.3,1.2-0.8c0-0.5-0.5-0.7-1.8-0.9c-2.6-0.3-3.7-1.1-3.7-3.1c0-2.2,1.9-3.2,4.2-3.2c2.4,0,4.1,0.8,4.3,3.1h-3    c-0.1-0.7-0.5-1-1.2-1c-0.7,0-1.1,0.3-1.1,0.8c0,0.5,0.4,0.6,1.6,0.8c2.7,0.3,4,1,4,3.1c0,2.3-1.7,3.3-4.4,3.3    C90.4,190.5,88.8,189.4,88.8,187.2"></path>
		<path id="path16133" inkscape:connector-curvature="0" class="st1" d="M99.1,187.2v-4.3H98v-2.3h1.2v-2h3.3v2h1.9v2.3h-1.9v4    c0,0.7,0.4,1,1,1c0.4,0,0.7-0.1,0.9-0.2v2.5c-0.4,0.1-1.1,0.3-1.8,0.3C100.4,190.5,99.1,189.5,99.1,187.2"></path>
		<path id="path16137" inkscape:connector-curvature="0" class="st1" d="M104.9,185.6v-0.1c0-3.1,2.3-5.1,5.3-5.1c3,0,5.3,1.9,5.3,5    v0.1c0,3.2-2.3,5-5.3,5C107.3,190.5,104.9,188.7,104.9,185.6 M112.2,185.5v-0.1c0-1.6-0.6-2.5-1.9-2.5c-1.2,0-1.9,0.9-1.9,2.5v0.1    c0,1.7,0.6,2.6,1.9,2.6C111.5,188.1,112.2,187.1,112.2,185.5"></path>
		<path id="path16139" inkscape:connector-curvature="0" class="st1" d="M116.7,177h3.3v13.3h-3.3V177z"></path>
		<path id="path16143" inkscape:connector-curvature="0" class="st1" d="M99.5,171.8v-2.4h3.4h0.9v-2.7h-0.9h-3.4v-2.3h5.4v-2.9    h-9.2v13.3h9.5v-2.9H99.5z"></path>
		<path id="path16147" inkscape:connector-curvature="0" class="st1" d="M130.3,164.8v-3.3h1.2v3.2c0,0.9,0.3,1.3,1,1.3    c0.7,0,1-0.3,1-1.3v-3.2h1.2v3.2c0,1.5-0.8,2.2-2.3,2.2C131.1,167,130.3,166.2,130.3,164.8"></path>
		<path id="path16151" inkscape:connector-curvature="0" class="st1" d="M135.6,162.9h1.1v0.6c0.2-0.4,0.6-0.7,1.3-0.7    c0.8,0,1.3,0.5,1.3,1.5v2.5h-1.1v-2.4c0-0.5-0.2-0.8-0.7-0.8c-0.5,0-0.8,0.3-0.8,0.9v2.3h-1.1V162.9z"></path>
		<path id="path16155" inkscape:connector-curvature="0" class="st1" d="M140.1,161.8c0-0.3,0.3-0.6,0.6-0.6c0.4,0,0.6,0.3,0.6,0.6    c0,0.3-0.3,0.6-0.6,0.6C140.3,162.4,140.1,162.1,140.1,161.8 M140.2,162.9h1.1v4h-1.1L140.2,162.9z"></path>
		<path id="path16159" inkscape:connector-curvature="0" class="st1" d="M141.7,162.9h1.2l0.9,2.8l0.9-2.8h1.1l-1.4,4h-1.2    L141.7,162.9z"></path>
		<path id="path16163" inkscape:connector-curvature="0" class="st1" d="M145.8,164.9L145.8,164.9c0-1.3,0.9-2.1,2-2.1    c1,0,1.9,0.6,1.9,2v0.3H147c0,0.7,0.4,1,1,1c0.5,0,0.8-0.2,0.8-0.6h1c-0.1,0.9-0.8,1.3-1.9,1.3C146.7,167,145.8,166.2,145.8,164.9     M148.7,164.5c0-0.6-0.3-0.9-0.9-0.9c-0.5,0-0.8,0.3-0.9,0.9H148.7z"></path>
		<path id="path16167" inkscape:connector-curvature="0" class="st1" d="M150.4,162.9h1.1v0.8c0.2-0.5,0.6-0.8,1.3-0.8v1    c-0.8,0-1.3,0.3-1.3,1v2h-1.1V162.9z"></path>
		<path id="path16171" inkscape:connector-curvature="0" class="st1" d="M152.9,165.6h1c0,0.4,0.2,0.6,0.7,0.6    c0.4,0,0.6-0.2,0.6-0.4c0-0.3-0.2-0.4-0.8-0.5c-1-0.2-1.5-0.5-1.5-1.2c0-0.8,0.8-1.2,1.6-1.2c0.9,0,1.5,0.3,1.6,1.2h-1    c-0.1-0.3-0.2-0.5-0.6-0.5c-0.4,0-0.6,0.2-0.6,0.4c0,0.2,0.2,0.3,0.8,0.4c1,0.1,1.5,0.4,1.5,1.2c0,0.9-0.6,1.3-1.7,1.3    C153.6,167,153,166.5,152.9,165.6"></path>
		<path id="path16175" inkscape:connector-curvature="0" class="st1" d="M156.8,161.8c0-0.3,0.3-0.6,0.6-0.6c0.4,0,0.6,0.3,0.6,0.6    c0,0.3-0.3,0.6-0.6,0.6C157.1,162.4,156.8,162.1,156.8,161.8 M156.9,162.9h1.1v4h-1.1V162.9z"></path>
		<path id="path16179" inkscape:connector-curvature="0" class="st1" d="M159,165.7v-2h-0.5v-0.8h0.5v-0.9h1.1v0.9h0.8v0.8h-0.8v1.9    c0,0.3,0.2,0.5,0.4,0.5c0.2,0,0.3,0,0.4-0.1v0.8c-0.2,0.1-0.4,0.1-0.7,0.1C159.5,166.9,159,166.5,159,165.7"></path>
		<path id="path16183" inkscape:connector-curvature="0" class="st1" d="M162.7,166.5l-1.6-3.6h1.2l1,2.4l0.9-2.4h1l-2.1,5.3H162    L162.7,166.5z"></path>
		<path id="path16187" inkscape:connector-curvature="0" class="st1" d="M130,172.8L130,172.8c0-1.3,0.9-2.1,2.1-2.1    c1.2,0,2.1,0.8,2.1,2v0.1c0,1.2-0.9,2-2.1,2C130.9,174.8,130,174,130,172.8 M133,172.8L133,172.8c0-0.8-0.4-1.3-1-1.3    c-0.6,0-1,0.4-1,1.2v0.1c0,0.8,0.3,1.2,1,1.2C132.7,174,133,173.5,133,172.8"></path>
		<path id="path16191" inkscape:connector-curvature="0" class="st1" d="M134.9,171.5h-0.5v-0.8h0.5v-0.5c0-0.9,0.5-1.4,1.4-1.4    c0.2,0,0.4,0,0.6,0.1v0.8c-0.1,0-0.2-0.1-0.4-0.1c-0.3,0-0.5,0.2-0.5,0.5v0.5h0.9v0.8H136v3.2h-1.1V171.5z"></path>
		<path id="path16195" inkscape:connector-curvature="0" class="st1" d="M139.1,173.5v-2h-0.5v-0.8h0.5v-0.9h1.1v0.9h0.8v0.8h-0.8    v1.9c0,0.3,0.2,0.5,0.4,0.5c0.2,0,0.3,0,0.4-0.1v0.8c-0.2,0.1-0.4,0.1-0.7,0.1C139.5,174.8,139.1,174.4,139.1,173.5"></path>
		<path id="path16199" inkscape:connector-curvature="0" class="st1" d="M141.6,169h1.1v2.4c0.2-0.4,0.6-0.7,1.3-0.7    c0.8,0,1.3,0.5,1.3,1.5v2.5h-1.1v-2.4c0-0.5-0.2-0.8-0.7-0.8c-0.5,0-0.8,0.3-0.8,0.9v2.3h-1.1V169z"></path>
		<path id="path16203" inkscape:connector-curvature="0" class="st1" d="M145.9,172.8L145.9,172.8c0-1.3,0.9-2.1,2-2.1    c1,0,1.9,0.6,1.9,2v0.3H147c0,0.7,0.4,1,1,1c0.5,0,0.8-0.2,0.8-0.6h1c-0.1,0.9-0.8,1.3-1.9,1.3C146.7,174.8,145.9,174,145.9,172.8     M148.8,172.3c0-0.6-0.3-0.9-0.9-0.9c-0.5,0-0.8,0.3-0.9,0.9H148.8z"></path>
		<path id="path16207" inkscape:connector-curvature="0" class="st1" d="M129.9,177.1h1.2l0.8,3.7l0.9-3.7h1l1,3.8l0.9-3.8h1.1    l-1.3,5.4h-1.2l-1-3.7l-1,3.7h-1.2L129.9,177.1z"></path>
		<path id="path16211" inkscape:connector-curvature="0" class="st1" d="M136.7,180.6L136.7,180.6c0-1.3,0.9-2.1,2-2.1    c1,0,1.9,0.6,1.9,2v0.3h-2.8c0,0.7,0.4,1,1,1c0.5,0,0.8-0.2,0.8-0.6h1c-0.1,0.9-0.8,1.3-1.9,1.3    C137.6,182.6,136.7,181.8,136.7,180.6 M139.6,180.1c0-0.6-0.3-0.9-0.9-0.9c-0.5,0-0.8,0.3-0.9,0.9H139.6z"></path>
		<path id="path16215" inkscape:connector-curvature="0" class="st1" d="M141,181.2h1c0,0.4,0.2,0.6,0.7,0.6c0.4,0,0.6-0.2,0.6-0.4    c0-0.3-0.2-0.4-0.8-0.5c-1-0.2-1.5-0.5-1.5-1.2c0-0.8,0.8-1.2,1.6-1.2c0.9,0,1.5,0.3,1.6,1.2h-1c-0.1-0.3-0.2-0.5-0.6-0.5    c-0.4,0-0.6,0.2-0.6,0.4c0,0.2,0.2,0.3,0.8,0.4c1,0.1,1.5,0.4,1.5,1.2c0,0.9-0.6,1.3-1.7,1.3C141.7,182.6,141,182.1,141,181.2"></path>
		<path id="path16219" inkscape:connector-curvature="0" class="st1" d="M145.1,181.3v-2h-0.5v-0.8h0.5v-0.9h1.1v0.9h0.8v0.8h-0.8    v1.9c0,0.3,0.2,0.5,0.4,0.5c0.2,0,0.3,0,0.4-0.1v0.8c-0.2,0.1-0.4,0.1-0.7,0.1C145.5,182.6,145.1,182.1,145.1,181.3"></path>
		<path id="path16223" inkscape:connector-curvature="0" class="st1" d="M148.7,180.5L148.7,180.5c0-1.3,0.9-2.1,2.1-2.1    c1.2,0,2.1,0.8,2.1,2v0.1c0,1.2-0.9,2-2.1,2C149.6,182.6,148.7,181.8,148.7,180.5 M151.8,180.5L151.8,180.5c0-0.8-0.4-1.3-1-1.3    c-0.6,0-1,0.4-1,1.2v0.1c0,0.8,0.3,1.2,1,1.2C151.4,181.7,151.8,181.3,151.8,180.5"></path>
		<path id="path16227" inkscape:connector-curvature="0" class="st1" d="M153.6,179.3h-0.5v-0.8h0.5v-0.5c0-0.9,0.5-1.4,1.4-1.4    c0.2,0,0.4,0,0.6,0.1v0.8c-0.1,0-0.2-0.1-0.4-0.1c-0.3,0-0.5,0.2-0.5,0.5v0.5h0.9v0.8h-0.9v3.2h-1.1V179.3z"></path>
		<path id="path16231" inkscape:connector-curvature="0" class="st1" d="M130.3,184.9h3.5v1h-2.3v1.3h1.8v0.9h-1.8v1.3h2.4v1h-3.6    V184.9z"></path>
		<path id="path16235" inkscape:connector-curvature="0" class="st1" d="M134.6,186.4h1.1v0.6c0.2-0.4,0.6-0.7,1.3-0.7    c0.8,0,1.3,0.5,1.3,1.5v2.5h-1.1V188c0-0.5-0.2-0.8-0.7-0.8c-0.5,0-0.8,0.3-0.8,0.9v2.3h-1.1V186.4z"></path>
		<path id="path16239" inkscape:connector-curvature="0" class="st1" d="M138.9,190.4h1.1c0.1,0.3,0.3,0.6,0.9,0.6c0.7,0,1-0.3,1-1    v-0.6c-0.2,0.4-0.7,0.7-1.3,0.7c-1,0-1.7-0.7-1.7-1.9v-0.1c0-1.1,0.8-1.9,1.7-1.9c0.6,0,1,0.3,1.3,0.7v-0.6h1.1v3.6    c0,1.2-0.8,1.8-2.1,1.8C139.6,191.8,139,191.2,138.9,190.4 M141.9,188.2L141.9,188.2c0-0.7-0.4-1.1-1-1.1c-0.6,0-1,0.4-1,1.1v0.1    c0,0.7,0.4,1.1,0.9,1.1C141.5,189.3,141.9,188.9,141.9,188.2"></path>
		<path id="path16241" inkscape:connector-curvature="0" class="st1" d="M143.8,184.6h1.1v5.7h-1.1V184.6z"></path>
		<path id="path16245" inkscape:connector-curvature="0" class="st1" d="M145.4,189.2c0-0.9,0.8-1.3,2.1-1.3h0.4v-0.2    c0-0.5-0.1-0.7-0.6-0.7c-0.4,0-0.6,0.2-0.7,0.6h-1c0.1-0.9,0.8-1.4,1.8-1.4s1.7,0.4,1.7,1.5v2.6H148v-0.5    c-0.2,0.3-0.6,0.6-1.2,0.6C146,190.4,145.4,190.1,145.4,189.2 M147.9,188.9v-0.3h-0.4c-0.6,0-1,0.1-1,0.6c0,0.3,0.2,0.5,0.6,0.5    C147.6,189.6,147.9,189.4,147.9,188.9"></path>
		<path id="path16249" inkscape:connector-curvature="0" class="st1" d="M149.8,186.4h1.1v0.6c0.2-0.4,0.6-0.7,1.3-0.7    c0.8,0,1.3,0.5,1.3,1.5v2.5h-1.1V188c0-0.5-0.2-0.8-0.7-0.8c-0.5,0-0.8,0.3-0.8,0.9v2.3h-1.1L149.8,186.4z"></path>
		<path id="path16253" inkscape:connector-curvature="0" class="st1" d="M154.1,188.4L154.1,188.4c0-1.4,0.7-2.1,1.7-2.1    c0.6,0,1,0.3,1.2,0.7v-2.4h1.1v5.7h-1.1v-0.7c-0.2,0.4-0.7,0.7-1.3,0.7C154.8,190.4,154.1,189.7,154.1,188.4 M157.1,188.4    L157.1,188.4c0-0.8-0.3-1.2-0.9-1.2c-0.6,0-1,0.4-1,1.2v0.1c0,0.8,0.4,1.2,0.9,1.2C156.7,189.5,157.1,189.2,157.1,188.4"></path>
	</g>
</g>
</svg>